<svg width="209" height="12" viewBox="0 0 209 12" fill="none" xmlns="http://www.w3.org/2000/svg">
<path d="M7.09415 1.092C7.28615 1.196 7.38215 1.356 7.38215 1.572C7.38215 1.716 7.33415 1.848 7.23815 1.968C7.14215 2.096 7.01015 2.16 6.84215 2.16C6.73015 2.16 6.62215 2.132 6.51815 2.076C6.02215 1.796 5.48615 1.656 4.91015 1.656C4.31015 1.656 3.77815 1.788 3.31415 2.052C2.85815 2.316 2.50215 2.688 2.24615 3.168C1.99015 3.64 1.86215 4.184 1.86215 4.8C1.86215 5.464 1.99415 6.036 2.25815 6.516C2.52215 6.996 2.88615 7.364 3.35015 7.62C3.81415 7.868 4.33415 7.992 4.91015 7.992C5.50215 7.992 6.03815 7.848 6.51815 7.56C6.61415 7.512 6.71815 7.488 6.83015 7.488C7.00615 7.488 7.14615 7.556 7.25015 7.692C7.34615 7.812 7.39415 7.94 7.39415 8.076C7.39415 8.172 7.36615 8.264 7.31015 8.352C7.26215 8.432 7.19415 8.496 7.10615 8.544C6.79415 8.72 6.44215 8.86 6.05015 8.964C5.66615 9.068 5.28615 9.12 4.91015 9.12C4.13415 9.12 3.41815 8.948 2.76215 8.604C2.11415 8.26 1.59415 7.76 1.20215 7.104C0.818153 6.448 0.626153 5.68 0.626153 4.8C0.626153 3.992 0.810153 3.264 1.17815 2.616C1.55415 1.96 2.06615 1.448 2.71415 1.08C3.37015 0.704 4.10215 0.516 4.91015 0.516C5.68615 0.516 6.41415 0.708 7.09415 1.092ZM15.1665 5.856C15.1665 6.48 15.0265 7.04 14.7465 7.536C14.4665 8.032 14.0825 8.42 13.5945 8.7C13.1145 8.98 12.5825 9.12 11.9985 9.12C11.4145 9.12 10.8785 8.98 10.3905 8.7C9.9105 8.42 9.5305 8.032 9.2505 7.536C8.9705 7.04 8.8305 6.48 8.8305 5.856C8.8305 5.232 8.9705 4.668 9.2505 4.164C9.5305 3.66 9.9105 3.268 10.3905 2.988C10.8785 2.708 11.4145 2.568 11.9985 2.568C12.5825 2.568 13.1145 2.708 13.5945 2.988C14.0825 3.268 14.4665 3.66 14.7465 4.164C15.0265 4.668 15.1665 5.232 15.1665 5.856ZM14.0265 5.856C14.0265 5.424 13.9345 5.04 13.7505 4.704C13.5745 4.36 13.3305 4.096 13.0185 3.912C12.7145 3.72 12.3745 3.624 11.9985 3.624C11.6225 3.624 11.2785 3.72 10.9665 3.912C10.6625 4.096 10.4185 4.36 10.2345 4.704C10.0585 5.04 9.9705 5.424 9.9705 5.856C9.9705 6.28 10.0585 6.66 10.2345 6.996C10.4185 7.332 10.6625 7.596 10.9665 7.788C11.2785 7.972 11.6225 8.064 11.9985 8.064C12.3745 8.064 12.7145 7.972 13.0185 7.788C13.3305 7.596 13.5745 7.332 13.7505 6.996C13.9345 6.66 14.0265 6.28 14.0265 5.856ZM20.2478 2.604C20.7918 2.604 21.2838 2.744 21.7238 3.024C22.1638 3.296 22.5078 3.68 22.7558 4.176C23.0118 4.672 23.1398 5.232 23.1398 5.856C23.1398 6.48 23.0118 7.04 22.7558 7.536C22.5078 8.024 22.1638 8.408 21.7238 8.688C21.2838 8.968 20.7998 9.108 20.2718 9.108C19.8558 9.108 19.4678 9.016 19.1078 8.832C18.7478 8.648 18.4558 8.424 18.2318 8.16V10.824C18.2318 10.984 18.1758 11.12 18.0638 11.232C17.9598 11.344 17.8238 11.4 17.6558 11.4C17.4958 11.4 17.3598 11.344 17.2478 11.232C17.1438 11.128 17.0918 10.992 17.0918 10.824V3.276C17.0918 3.108 17.1438 2.968 17.2478 2.856C17.3518 2.744 17.4878 2.688 17.6558 2.688C17.8238 2.688 17.9598 2.744 18.0638 2.856C18.1758 2.968 18.2318 3.108 18.2318 3.276V3.624C18.4238 3.344 18.7038 3.104 19.0718 2.904C19.4398 2.704 19.8318 2.604 20.2478 2.604ZM20.1158 8.052C20.4838 8.052 20.8158 7.956 21.1118 7.764C21.4078 7.572 21.6358 7.312 21.7958 6.984C21.9638 6.648 22.0478 6.272 22.0478 5.856C22.0478 5.44 21.9638 5.068 21.7958 4.74C21.6358 4.404 21.4078 4.14 21.1118 3.948C20.8158 3.756 20.4838 3.66 20.1158 3.66C19.7398 3.66 19.4038 3.756 19.1078 3.948C18.8118 4.132 18.5798 4.392 18.4118 4.728C18.2518 5.064 18.1718 5.44 18.1718 5.856C18.1718 6.272 18.2518 6.648 18.4118 6.984C18.5798 7.32 18.8118 7.584 19.1078 7.776C19.4038 7.96 19.7398 8.052 20.1158 8.052ZM29.7429 2.652C29.9109 2.652 30.0469 2.708 30.1509 2.82C30.2629 2.932 30.3189 3.068 30.3189 3.228V8.412C30.3189 9.412 30.0429 10.16 29.4909 10.656C28.9389 11.152 28.2109 11.4 27.3069 11.4C27.0109 11.4 26.7189 11.372 26.4309 11.316C26.1429 11.26 25.9069 11.184 25.7229 11.088C25.4269 10.952 25.2789 10.768 25.2789 10.536C25.2789 10.496 25.2869 10.444 25.3029 10.38C25.3509 10.244 25.4189 10.14 25.5069 10.068C25.5949 9.996 25.6949 9.96 25.8069 9.96C25.8709 9.96 25.9309 9.972 25.9869 9.996C26.2349 10.108 26.4549 10.196 26.6469 10.26C26.8389 10.324 27.0629 10.356 27.3189 10.356C28.5589 10.356 29.1789 9.72 29.1789 8.448V8.208C28.9629 8.496 28.6829 8.72 28.3389 8.88C28.0029 9.04 27.6149 9.12 27.1749 9.12C26.5109 9.12 25.9909 8.908 25.6149 8.484C25.2469 8.06 25.0629 7.504 25.0629 6.816V3.228C25.0629 3.06 25.1149 2.924 25.2189 2.82C25.3229 2.708 25.4589 2.652 25.6269 2.652C25.7949 2.652 25.9309 2.708 26.0349 2.82C26.1469 2.932 26.2029 3.068 26.2029 3.228V6.516C26.2029 7.044 26.3189 7.436 26.5509 7.692C26.7829 7.94 27.1349 8.064 27.6069 8.064C28.0629 8.064 28.4389 7.92 28.7349 7.632C29.0309 7.344 29.1789 6.972 29.1789 6.516V3.228C29.1789 3.06 29.2309 2.924 29.3349 2.82C29.4389 2.708 29.5749 2.652 29.7429 2.652ZM35.7442 2.568C35.9522 2.568 36.1322 2.624 36.2842 2.736C36.4362 2.84 36.5122 2.972 36.5122 3.132C36.5122 3.324 36.4602 3.472 36.3562 3.576C36.2602 3.672 36.1402 3.72 35.9962 3.72C35.9242 3.72 35.8162 3.696 35.6722 3.648C35.5042 3.592 35.3722 3.564 35.2762 3.564C35.0282 3.564 34.7842 3.652 34.5442 3.828C34.3122 3.996 34.1202 4.232 33.9682 4.536C33.8242 4.832 33.7522 5.164 33.7522 5.532V8.424C33.7522 8.584 33.6962 8.72 33.5842 8.832C33.4802 8.944 33.3442 9 33.1762 9C33.0082 9 32.8722 8.948 32.7682 8.844C32.6642 8.732 32.6122 8.592 32.6122 8.424V3.288C32.6122 3.128 32.6642 2.992 32.7682 2.88C32.8802 2.768 33.0162 2.712 33.1762 2.712C33.3442 2.712 33.4802 2.768 33.5842 2.88C33.6962 2.992 33.7522 3.128 33.7522 3.288V3.9C33.9282 3.508 34.1922 3.192 34.5442 2.952C34.8962 2.704 35.2962 2.576 35.7442 2.568ZM39.2492 8.424C39.2492 8.584 39.1932 8.72 39.0812 8.832C38.9772 8.944 38.8412 9 38.6732 9C38.5132 9 38.3772 8.944 38.2652 8.832C38.1612 8.72 38.1092 8.584 38.1092 8.424V3.228C38.1092 3.068 38.1612 2.932 38.2652 2.82C38.3772 2.708 38.5132 2.652 38.6732 2.652C38.8412 2.652 38.9772 2.708 39.0812 2.82C39.1932 2.932 39.2492 3.068 39.2492 3.228V8.424ZM38.6732 1.86C38.4412 1.86 38.2732 1.82 38.1692 1.74C38.0732 1.652 38.0252 1.516 38.0252 1.332V1.14C38.0252 0.948 38.0772 0.812 38.1812 0.732C38.2932 0.652 38.4612 0.612 38.6852 0.612C38.9092 0.612 39.0692 0.656 39.1652 0.744C39.2692 0.824 39.3212 0.956 39.3212 1.14V1.332C39.3212 1.524 39.2692 1.66 39.1652 1.74C39.0612 1.82 38.8972 1.86 38.6732 1.86ZM46.7439 2.628C46.9119 2.628 47.0479 2.684 47.1519 2.796C47.2639 2.9 47.3199 3.04 47.3199 3.216V8.496C47.3199 9.144 47.1799 9.684 46.8999 10.116C46.6279 10.556 46.2559 10.88 45.7839 11.088C45.3119 11.296 44.7799 11.4 44.1879 11.4C43.8679 11.4 43.4919 11.344 43.0599 11.232C42.6359 11.12 42.3639 11.004 42.2439 10.884C41.9959 10.756 41.8719 10.596 41.8719 10.404C41.8719 10.356 41.8879 10.292 41.9199 10.212C42.0079 10.012 42.1559 9.912 42.3639 9.912C42.4679 9.912 42.5799 9.936 42.6999 9.984C43.3399 10.232 43.8399 10.356 44.1999 10.356C44.8399 10.356 45.3279 10.2 45.6639 9.888C46.0079 9.584 46.1799 9.164 46.1799 8.628V7.98C46.0119 8.292 45.7279 8.56 45.3279 8.784C44.9359 9.008 44.5199 9.12 44.0799 9.12C43.5279 9.12 43.0239 8.98 42.5679 8.7C42.1119 8.42 41.7519 8.032 41.4879 7.536C41.2319 7.032 41.1039 6.468 41.1039 5.844C41.1039 5.22 41.2319 4.66 41.4879 4.164C41.7519 3.66 42.1079 3.268 42.5559 2.988C43.0119 2.708 43.5119 2.568 44.0559 2.568C44.4959 2.568 44.9039 2.668 45.2799 2.868C45.6639 3.068 45.9639 3.312 46.1799 3.6V3.216C46.1799 3.048 46.2319 2.908 46.3359 2.796C46.4399 2.684 46.5759 2.628 46.7439 2.628ZM44.2119 8.064C44.6039 8.064 44.9519 7.972 45.2559 7.788C45.5599 7.596 45.7959 7.332 45.9639 6.996C46.1399 6.652 46.2279 6.268 46.2279 5.844C46.2279 5.42 46.1399 5.04 45.9639 4.704C45.7959 4.368 45.5599 4.104 45.2559 3.912C44.9519 3.72 44.6039 3.624 44.2119 3.624C43.8279 3.624 43.4839 3.72 43.1799 3.912C42.8759 4.104 42.6359 4.372 42.4599 4.716C42.2919 5.052 42.2079 5.428 42.2079 5.844C42.2079 6.26 42.2919 6.64 42.4599 6.984C42.6359 7.32 42.8759 7.584 43.1799 7.776C43.4839 7.968 43.8279 8.064 44.2119 8.064ZM52.7434 2.604C54.1514 2.604 54.8554 3.476 54.8554 5.22V8.424C54.8554 8.584 54.7994 8.72 54.6874 8.832C54.5834 8.944 54.4474 9 54.2794 9C54.1194 9 53.9834 8.944 53.8714 8.832C53.7674 8.72 53.7154 8.584 53.7154 8.424V5.22C53.7154 4.18 53.2754 3.66 52.3954 3.66C51.9234 3.66 51.5314 3.812 51.2194 4.116C50.9074 4.412 50.7514 4.78 50.7514 5.22V8.424C50.7514 8.584 50.6954 8.72 50.5834 8.832C50.4794 8.944 50.3434 9 50.1754 9C50.0074 9 49.8714 8.948 49.7674 8.844C49.6634 8.732 49.6114 8.592 49.6114 8.424V0.696C49.6114 0.536 49.6634 0.4 49.7674 0.288C49.8794 0.176 50.0154 0.12 50.1754 0.12C50.3434 0.12 50.4794 0.176 50.5834 0.288C50.6954 0.4 50.7514 0.536 50.7514 0.696V3.732C50.9514 3.42 51.2314 3.156 51.5914 2.94C51.9514 2.716 52.3354 2.604 52.7434 2.604ZM58.8646 3.828V7.404C58.8646 7.804 59.0446 8.004 59.4046 8.004C59.4606 8.004 59.5366 7.992 59.6326 7.968C59.7286 7.936 59.8046 7.92 59.8606 7.92C59.9646 7.92 60.0526 7.964 60.1246 8.052C60.1966 8.14 60.2326 8.252 60.2326 8.388C60.2326 8.556 60.1366 8.7 59.9446 8.82C59.7526 8.94 59.5366 9 59.2966 9C59.0326 9 58.7886 8.972 58.5646 8.916C58.3486 8.86 58.1526 8.72 57.9766 8.496C57.8086 8.264 57.7246 7.916 57.7246 7.452V3.828H57.0286C56.8766 3.828 56.7486 3.78 56.6446 3.684C56.5486 3.58 56.5006 3.452 56.5006 3.3C56.5006 3.148 56.5486 3.024 56.6446 2.928C56.7486 2.832 56.8766 2.784 57.0286 2.784H57.7246V1.776C57.7246 1.616 57.7766 1.48 57.8806 1.368C57.9926 1.256 58.1326 1.2 58.3006 1.2C58.4606 1.2 58.5926 1.256 58.6966 1.368C58.8086 1.48 58.8646 1.616 58.8646 1.776V2.784H59.8606C60.0126 2.784 60.1366 2.836 60.2326 2.94C60.3366 3.036 60.3886 3.16 60.3886 3.312C60.3886 3.464 60.3366 3.588 60.2326 3.684C60.1366 3.78 60.0126 3.828 59.8606 3.828H58.8646ZM70.1113 9.084C69.3353 9.084 68.6193 8.896 67.9633 8.52C67.3073 8.136 66.7873 7.616 66.4033 6.96C66.0193 6.304 65.8273 5.584 65.8273 4.8C65.8273 4.008 66.0193 3.288 66.4033 2.64C66.7873 1.984 67.3073 1.468 67.9633 1.092C68.6193 0.708 69.3353 0.516 70.1113 0.516C70.8873 0.516 71.6033 0.708 72.2593 1.092C72.9153 1.468 73.4353 1.984 73.8193 2.64C74.2033 3.288 74.3953 4.008 74.3953 4.8C74.3953 5.584 74.2033 6.304 73.8193 6.96C73.4353 7.616 72.9153 8.136 72.2593 8.52C71.6033 8.896 70.8873 9.084 70.1113 9.084ZM70.1113 8.328C70.7513 8.328 71.3393 8.172 71.8753 7.86C72.4193 7.548 72.8473 7.124 73.1593 6.588C73.4793 6.044 73.6393 5.448 73.6393 4.8C73.6393 4.152 73.4793 3.56 73.1593 3.024C72.8473 2.48 72.4193 2.052 71.8753 1.74C71.3393 1.428 70.7513 1.272 70.1113 1.272C69.4713 1.272 68.8833 1.428 68.3473 1.74C67.8113 2.052 67.3833 2.48 67.0633 3.024C66.7513 3.56 66.5953 4.152 66.5953 4.8C66.5953 5.448 66.7513 6.044 67.0633 6.588C67.3833 7.124 67.8113 7.548 68.3473 7.86C68.8833 8.172 69.4713 8.328 70.1113 8.328ZM70.3273 7.284C69.8713 7.284 69.4473 7.18 69.0553 6.972C68.6633 6.764 68.3473 6.472 68.1073 6.096C67.8753 5.72 67.7593 5.288 67.7593 4.8C67.7593 4.352 67.8713 3.94 68.0953 3.564C68.3193 3.18 68.6273 2.876 69.0193 2.652C69.4113 2.428 69.8473 2.316 70.3273 2.316C70.5513 2.316 70.7753 2.348 70.9993 2.412C71.2233 2.468 71.4233 2.548 71.5993 2.652C71.6713 2.684 71.7273 2.736 71.7673 2.808C71.8073 2.88 71.8273 2.956 71.8273 3.036C71.8273 3.132 71.7953 3.224 71.7313 3.312C71.6433 3.424 71.5273 3.48 71.3833 3.48C71.3193 3.48 71.2473 3.46 71.1673 3.42C70.9193 3.276 70.6393 3.204 70.3273 3.204C69.8473 3.204 69.4473 3.36 69.1273 3.672C68.8153 3.976 68.6593 4.352 68.6593 4.8C68.6593 5.28 68.8153 5.668 69.1273 5.964C69.4473 6.252 69.8473 6.396 70.3273 6.396C70.6153 6.396 70.8953 6.328 71.1673 6.192C71.2473 6.152 71.3193 6.132 71.3833 6.132C71.5273 6.132 71.6433 6.188 71.7313 6.3C71.7953 6.388 71.8273 6.484 71.8273 6.588C71.8273 6.668 71.8073 6.744 71.7673 6.816C71.7273 6.88 71.6713 6.928 71.5993 6.96C71.2153 7.176 70.7913 7.284 70.3273 7.284ZM84.973 7.944C85.125 7.944 85.253 7.996 85.357 8.1C85.461 8.204 85.513 8.332 85.513 8.484C85.513 8.636 85.461 8.76 85.357 8.856C85.253 8.952 85.125 9 84.973 9H80.713C80.553 9 80.421 8.952 80.317 8.856C80.213 8.752 80.161 8.616 80.161 8.448C80.161 8.304 80.217 8.168 80.329 8.04L83.005 5.136C83.749 4.344 84.121 3.644 84.121 3.036C84.121 2.604 83.977 2.248 83.689 1.968C83.409 1.68 83.049 1.536 82.609 1.536C82.313 1.536 82.029 1.62 81.757 1.788C81.485 1.956 81.265 2.196 81.097 2.508C80.969 2.676 80.817 2.76 80.641 2.76C80.505 2.76 80.377 2.708 80.257 2.604C80.137 2.5 80.077 2.38 80.077 2.244C80.077 2.156 80.105 2.064 80.161 1.968C80.225 1.872 80.313 1.76 80.425 1.632C80.689 1.28 81.025 1 81.433 0.792C81.841 0.584 82.253 0.48 82.669 0.48C83.205 0.48 83.669 0.588 84.061 0.804C84.453 1.02 84.753 1.316 84.961 1.692C85.177 2.068 85.285 2.5 85.285 2.988C85.285 3.908 84.789 4.9 83.797 5.964L81.985 7.944H84.973ZM90.179 9.12C89.523 9.12 88.963 8.936 88.499 8.568C88.035 8.2 87.683 7.692 87.443 7.044C87.211 6.396 87.095 5.648 87.095 4.8C87.095 3.952 87.211 3.204 87.443 2.556C87.683 1.908 88.035 1.4 88.499 1.032C88.963 0.664 89.523 0.48 90.179 0.48C90.835 0.48 91.395 0.664 91.859 1.032C92.323 1.4 92.671 1.908 92.903 2.556C93.143 3.204 93.263 3.952 93.263 4.8C93.263 5.648 93.143 6.396 92.903 7.044C92.671 7.692 92.323 8.2 91.859 8.568C91.395 8.936 90.835 9.12 90.179 9.12ZM90.179 7.968C90.763 7.968 91.215 7.692 91.535 7.14C91.863 6.588 92.027 5.808 92.027 4.8C92.027 3.792 91.863 3.012 91.535 2.46C91.215 1.908 90.763 1.632 90.179 1.632C89.595 1.632 89.139 1.908 88.811 2.46C88.491 3.012 88.331 3.792 88.331 4.8C88.331 5.808 88.491 6.588 88.811 7.14C89.139 7.692 89.595 7.968 90.179 7.968ZM97.0963 0.6C97.2563 0.608 97.3843 0.668 97.4803 0.78C97.5843 0.884 97.6363 1.016 97.6363 1.176V8.424C97.6363 8.584 97.5763 8.72 97.4563 8.832C97.3363 8.944 97.1883 9 97.0123 9C96.8363 9 96.6923 8.944 96.5803 8.832C96.4683 8.72 96.4123 8.584 96.4123 8.424V2.184L95.3563 2.82C95.2683 2.876 95.1683 2.904 95.0563 2.904C94.8963 2.904 94.7603 2.844 94.6483 2.724C94.5363 2.596 94.4803 2.46 94.4803 2.316C94.4803 2.22 94.5083 2.128 94.5643 2.04C94.6203 1.952 94.6923 1.88 94.7803 1.824L96.6763 0.684C96.7883 0.628 96.9283 0.6 97.0963 0.6ZM104.147 4.656C104.531 4.872 104.835 5.152 105.059 5.496C105.291 5.84 105.407 6.208 105.407 6.6C105.407 7.04 105.287 7.448 105.047 7.824C104.807 8.192 104.479 8.488 104.063 8.712C103.647 8.928 103.191 9.036 102.695 9.036C102.199 9.036 101.743 8.928 101.327 8.712C100.911 8.488 100.583 8.192 100.343 7.824C100.103 7.448 99.9833 7.04 99.9833 6.6C99.9833 6.168 100.095 5.792 100.319 5.472C100.551 5.144 100.847 4.876 101.207 4.668C100.911 4.5 100.667 4.272 100.475 3.984C100.283 3.688 100.187 3.344 100.187 2.952C100.187 2.52 100.299 2.124 100.523 1.764C100.747 1.404 101.047 1.12 101.423 0.912C101.807 0.704 102.231 0.6 102.695 0.6C103.151 0.6 103.571 0.704 103.955 0.912C104.339 1.12 104.639 1.404 104.855 1.764C105.079 2.124 105.191 2.52 105.191 2.952C105.191 3.36 105.091 3.708 104.891 3.996C104.691 4.276 104.443 4.496 104.147 4.656ZM102.695 1.656C102.295 1.656 101.967 1.78 101.711 2.028C101.455 2.276 101.327 2.592 101.327 2.976C101.327 3.352 101.459 3.668 101.723 3.924C101.987 4.172 102.311 4.296 102.695 4.296C103.071 4.296 103.391 4.172 103.655 3.924C103.919 3.668 104.051 3.352 104.051 2.976C104.051 2.592 103.923 2.276 103.667 2.028C103.411 1.78 103.087 1.656 102.695 1.656ZM102.695 7.98C103.143 7.98 103.515 7.848 103.811 7.584C104.115 7.32 104.267 6.988 104.267 6.588C104.267 6.188 104.111 5.852 103.799 5.58C103.495 5.308 103.127 5.172 102.695 5.172C102.263 5.172 101.895 5.308 101.591 5.58C101.287 5.852 101.135 6.188 101.135 6.588C101.135 6.988 101.283 7.32 101.579 7.584C101.875 7.848 102.247 7.98 102.695 7.98ZM116.501 4.416C116.941 4.568 117.301 4.82 117.581 5.172C117.869 5.516 118.013 5.968 118.013 6.528C118.013 7.416 117.753 8.052 117.233 8.436C116.721 8.812 116.093 9 115.349 9H112.265C112.105 9 111.969 8.944 111.857 8.832C111.745 8.72 111.689 8.584 111.689 8.424V1.176C111.689 1.016 111.745 0.88 111.857 0.768C111.969 0.656 112.105 0.6 112.265 0.6H115.349C116.077 0.6 116.629 0.78 117.005 1.14C117.389 1.5 117.581 2.02 117.581 2.7C117.581 3.084 117.489 3.428 117.305 3.732C117.121 4.028 116.853 4.256 116.501 4.416ZM116.345 2.88C116.345 2.504 116.241 2.22 116.033 2.028C115.833 1.828 115.549 1.728 115.181 1.728H112.913V4.068H115.205C115.533 4.06 115.805 3.956 116.021 3.756C116.237 3.548 116.345 3.256 116.345 2.88ZM115.337 7.896C115.777 7.896 116.129 7.784 116.393 7.56C116.657 7.328 116.789 6.984 116.789 6.528C116.789 5.64 116.285 5.196 115.277 5.196H112.913V7.896H115.337ZM124.665 2.652C124.833 2.652 124.969 2.708 125.073 2.82C125.185 2.932 125.241 3.068 125.241 3.228V8.412C125.241 9.412 124.965 10.16 124.413 10.656C123.861 11.152 123.133 11.4 122.229 11.4C121.933 11.4 121.641 11.372 121.353 11.316C121.065 11.26 120.829 11.184 120.645 11.088C120.349 10.952 120.201 10.768 120.201 10.536C120.201 10.496 120.209 10.444 120.225 10.38C120.273 10.244 120.341 10.14 120.429 10.068C120.517 9.996 120.617 9.96 120.729 9.96C120.793 9.96 120.853 9.972 120.909 9.996C121.157 10.108 121.377 10.196 121.569 10.26C121.761 10.324 121.985 10.356 122.241 10.356C123.481 10.356 124.101 9.72 124.101 8.448V8.208C123.885 8.496 123.605 8.72 123.261 8.88C122.925 9.04 122.537 9.12 122.097 9.12C121.433 9.12 120.913 8.908 120.537 8.484C120.169 8.06 119.985 7.504 119.985 6.816V3.228C119.985 3.06 120.037 2.924 120.141 2.82C120.245 2.708 120.381 2.652 120.549 2.652C120.717 2.652 120.853 2.708 120.957 2.82C121.069 2.932 121.125 3.068 121.125 3.228V6.516C121.125 7.044 121.241 7.436 121.473 7.692C121.705 7.94 122.057 8.064 122.529 8.064C122.985 8.064 123.361 7.92 123.657 7.632C123.953 7.344 124.101 6.972 124.101 6.516V3.228C124.101 3.06 124.153 2.924 124.257 2.82C124.361 2.708 124.497 2.652 124.665 2.652ZM138.002 8.04C138.082 8.096 138.146 8.168 138.194 8.256C138.242 8.336 138.266 8.42 138.266 8.508C138.266 8.676 138.21 8.8 138.098 8.88C137.994 8.96 137.866 9 137.714 9C137.562 9 137.434 8.968 137.33 8.904C137.09 8.768 136.894 8.548 136.742 8.244C136.59 7.94 136.514 7.492 136.514 6.9C136.514 6.5 136.394 6.204 136.154 6.012C135.914 5.82 135.602 5.724 135.218 5.724H132.794V8.424C132.794 8.592 132.746 8.732 132.65 8.844C132.554 8.948 132.43 9 132.278 9C132.094 9 131.934 8.944 131.798 8.832C131.67 8.72 131.606 8.584 131.606 8.424V1.176C131.606 1.016 131.662 0.88 131.774 0.768C131.886 0.656 132.022 0.6 132.182 0.6H135.554C135.986 0.6 136.382 0.708 136.742 0.924C137.102 1.132 137.39 1.424 137.606 1.8C137.822 2.168 137.93 2.584 137.93 3.048C137.93 3.496 137.81 3.916 137.57 4.308C137.33 4.692 137.022 4.98 136.646 5.172C136.942 5.324 137.174 5.536 137.342 5.808C137.518 6.08 137.614 6.396 137.63 6.756C137.662 7.212 137.698 7.524 137.738 7.692C137.778 7.852 137.866 7.968 138.002 8.04ZM135.53 4.728C135.73 4.712 135.918 4.632 136.094 4.488C136.278 4.344 136.426 4.152 136.538 3.912C136.65 3.664 136.706 3.388 136.706 3.084C136.706 2.7 136.586 2.376 136.346 2.112C136.114 1.84 135.83 1.704 135.494 1.704H132.794V4.728H135.53ZM145.365 2.628C145.533 2.628 145.669 2.684 145.773 2.796C145.885 2.9 145.941 3.04 145.941 3.216V8.424C145.941 8.584 145.885 8.72 145.773 8.832C145.669 8.944 145.533 9 145.365 9C145.197 9 145.061 8.948 144.957 8.844C144.853 8.732 144.801 8.592 144.801 8.424V8.112C144.593 8.392 144.309 8.632 143.949 8.832C143.589 9.024 143.201 9.12 142.785 9.12C142.241 9.12 141.745 8.98 141.297 8.7C140.857 8.42 140.509 8.032 140.253 7.536C140.005 7.032 139.881 6.468 139.881 5.844C139.881 5.22 140.005 4.66 140.253 4.164C140.509 3.66 140.857 3.268 141.297 2.988C141.737 2.708 142.221 2.568 142.749 2.568C143.173 2.568 143.565 2.656 143.925 2.832C144.293 3.008 144.585 3.232 144.801 3.504V3.216C144.801 3.048 144.853 2.908 144.957 2.796C145.061 2.684 145.197 2.628 145.365 2.628ZM142.917 8.064C143.293 8.064 143.625 7.968 143.913 7.776C144.209 7.584 144.437 7.32 144.597 6.984C144.765 6.648 144.849 6.268 144.849 5.844C144.849 5.428 144.765 5.052 144.597 4.716C144.437 4.38 144.209 4.116 143.913 3.924C143.625 3.724 143.293 3.624 142.917 3.624C142.541 3.624 142.205 3.72 141.909 3.912C141.621 4.104 141.393 4.368 141.225 4.704C141.065 5.04 140.985 5.42 140.985 5.844C140.985 6.268 141.065 6.648 141.225 6.984C141.393 7.32 141.621 7.584 141.909 7.776C142.205 7.968 142.541 8.064 142.917 8.064ZM151.44 2.568C152.88 2.568 153.6 3.432 153.6 5.16V8.424C153.6 8.584 153.544 8.72 153.432 8.832C153.328 8.944 153.192 9 153.024 9C152.864 9 152.728 8.944 152.616 8.832C152.512 8.72 152.46 8.584 152.46 8.424V5.172C152.46 4.7 152.352 4.324 152.136 4.044C151.92 3.764 151.568 3.624 151.08 3.624C150.76 3.624 150.468 3.696 150.204 3.84C149.948 3.976 149.744 4.164 149.592 4.404C149.448 4.636 149.376 4.892 149.376 5.172V8.424C149.376 8.584 149.32 8.72 149.208 8.832C149.104 8.944 148.968 9 148.8 9C148.632 9 148.496 8.948 148.392 8.844C148.288 8.732 148.236 8.592 148.236 8.424V3.288C148.236 3.128 148.288 2.992 148.392 2.88C148.504 2.768 148.64 2.712 148.8 2.712C148.968 2.712 149.104 2.768 149.208 2.88C149.32 2.992 149.376 3.128 149.376 3.288V3.708C149.584 3.388 149.872 3.12 150.24 2.904C150.616 2.68 151.016 2.568 151.44 2.568ZM161.003 0.12C161.171 0.12 161.307 0.176 161.411 0.288C161.523 0.392 161.579 0.528 161.579 0.696V8.424C161.579 8.584 161.523 8.72 161.411 8.832C161.307 8.944 161.171 9 161.003 9C160.835 9 160.699 8.948 160.595 8.844C160.491 8.732 160.439 8.592 160.439 8.424V8.088C160.239 8.376 159.955 8.62 159.587 8.82C159.227 9.02 158.839 9.12 158.423 9.12C157.879 9.12 157.387 8.98 156.947 8.7C156.507 8.42 156.159 8.032 155.903 7.536C155.647 7.032 155.519 6.468 155.519 5.844C155.519 5.22 155.643 4.66 155.891 4.164C156.147 3.66 156.495 3.268 156.935 2.988C157.375 2.708 157.859 2.568 158.387 2.568C158.811 2.568 159.203 2.656 159.563 2.832C159.923 3.008 160.215 3.236 160.439 3.516V0.696C160.439 0.528 160.491 0.392 160.595 0.288C160.699 0.176 160.835 0.12 161.003 0.12ZM158.555 8.064C158.931 8.064 159.263 7.968 159.551 7.776C159.847 7.584 160.075 7.32 160.235 6.984C160.403 6.648 160.487 6.268 160.487 5.844C160.487 5.428 160.403 5.052 160.235 4.716C160.075 4.372 159.847 4.104 159.551 3.912C159.263 3.72 158.931 3.624 158.555 3.624C158.179 3.624 157.843 3.72 157.547 3.912C157.259 4.104 157.031 4.372 156.863 4.716C156.703 5.052 156.623 5.428 156.623 5.844C156.623 6.268 156.703 6.648 156.863 6.984C157.031 7.32 157.259 7.584 157.547 7.776C157.843 7.968 158.179 8.064 158.555 8.064ZM169.826 5.856C169.826 6.48 169.686 7.04 169.406 7.536C169.126 8.032 168.742 8.42 168.254 8.7C167.774 8.98 167.242 9.12 166.658 9.12C166.074 9.12 165.538 8.98 165.05 8.7C164.57 8.42 164.19 8.032 163.91 7.536C163.63 7.04 163.49 6.48 163.49 5.856C163.49 5.232 163.63 4.668 163.91 4.164C164.19 3.66 164.57 3.268 165.05 2.988C165.538 2.708 166.074 2.568 166.658 2.568C167.242 2.568 167.774 2.708 168.254 2.988C168.742 3.268 169.126 3.66 169.406 4.164C169.686 4.668 169.826 5.232 169.826 5.856ZM168.686 5.856C168.686 5.424 168.594 5.04 168.41 4.704C168.234 4.36 167.99 4.096 167.678 3.912C167.374 3.72 167.034 3.624 166.658 3.624C166.282 3.624 165.938 3.72 165.626 3.912C165.322 4.096 165.078 4.36 164.894 4.704C164.718 5.04 164.63 5.424 164.63 5.856C164.63 6.28 164.718 6.66 164.894 6.996C165.078 7.332 165.322 7.596 165.626 7.788C165.938 7.972 166.282 8.064 166.658 8.064C167.034 8.064 167.374 7.972 167.678 7.788C167.99 7.596 168.234 7.332 168.41 6.996C168.594 6.66 168.686 6.28 168.686 5.856ZM178.963 2.604C180.363 2.604 181.063 3.476 181.063 5.22V8.424C181.063 8.592 181.011 8.732 180.907 8.844C180.803 8.948 180.667 9 180.499 9C180.331 9 180.191 8.944 180.079 8.832C179.975 8.72 179.923 8.584 179.923 8.424V5.232C179.923 4.184 179.483 3.66 178.603 3.66C178.291 3.66 178.007 3.732 177.751 3.876C177.503 4.012 177.307 4.2 177.163 4.44C177.027 4.68 176.959 4.944 176.959 5.232V8.424C176.959 8.584 176.903 8.72 176.791 8.832C176.687 8.944 176.551 9 176.383 9C176.215 9 176.079 8.948 175.975 8.844C175.871 8.732 175.819 8.592 175.819 8.424V5.22C175.819 4.748 175.719 4.372 175.519 4.092C175.319 3.804 174.987 3.66 174.523 3.66C174.051 3.66 173.659 3.812 173.347 4.116C173.043 4.412 172.891 4.78 172.891 5.22V8.424C172.891 8.584 172.835 8.72 172.723 8.832C172.619 8.944 172.483 9 172.315 9C172.147 9 172.011 8.948 171.907 8.844C171.803 8.732 171.751 8.592 171.751 8.424V3.288C171.751 3.128 171.803 2.992 171.907 2.88C172.019 2.768 172.155 2.712 172.315 2.712C172.483 2.712 172.619 2.768 172.723 2.88C172.835 2.992 172.891 3.128 172.891 3.288V3.708C173.099 3.396 173.375 3.136 173.719 2.928C174.071 2.712 174.451 2.604 174.859 2.604C175.851 2.604 176.495 3.044 176.791 3.924C176.967 3.588 177.259 3.284 177.667 3.012C178.075 2.74 178.507 2.604 178.963 2.604ZM189.983 9.12C189.399 9.12 188.883 9.04 188.435 8.88C187.987 8.712 187.559 8.444 187.151 8.076C186.983 7.932 186.899 7.768 186.899 7.584C186.899 7.44 186.955 7.312 187.067 7.2C187.179 7.08 187.311 7.02 187.463 7.02C187.599 7.02 187.715 7.064 187.811 7.152C188.131 7.448 188.459 7.668 188.795 7.812C189.139 7.948 189.527 8.016 189.959 8.016C190.463 8.016 190.887 7.9 191.231 7.668C191.583 7.436 191.759 7.144 191.759 6.792C191.751 6.376 191.575 6.056 191.231 5.832C190.895 5.6 190.379 5.408 189.683 5.256C188.859 5.088 188.223 4.812 187.775 4.428C187.335 4.044 187.115 3.512 187.115 2.832C187.115 2.36 187.239 1.948 187.487 1.596C187.735 1.236 188.079 0.96 188.519 0.768C188.959 0.576 189.455 0.48 190.007 0.48C190.503 0.48 190.971 0.56 191.411 0.72C191.851 0.88 192.207 1.092 192.479 1.356C192.663 1.516 192.755 1.688 192.755 1.872C192.755 2.016 192.699 2.144 192.587 2.256C192.483 2.368 192.355 2.424 192.203 2.424C192.091 2.424 191.999 2.392 191.927 2.328C191.719 2.12 191.431 1.944 191.063 1.8C190.695 1.656 190.343 1.584 190.007 1.584C189.471 1.584 189.043 1.696 188.723 1.92C188.411 2.136 188.255 2.424 188.255 2.784C188.255 3.176 188.411 3.476 188.723 3.684C189.043 3.892 189.515 4.068 190.139 4.212C190.763 4.348 191.271 4.508 191.663 4.692C192.063 4.876 192.371 5.132 192.587 5.46C192.803 5.788 192.911 6.216 192.911 6.744C192.911 7.208 192.779 7.62 192.515 7.98C192.259 8.34 191.907 8.62 191.459 8.82C191.011 9.02 190.519 9.12 189.983 9.12ZM195.959 8.424C195.959 8.584 195.903 8.72 195.791 8.832C195.687 8.944 195.551 9 195.383 9C195.223 9 195.087 8.944 194.975 8.832C194.871 8.72 194.819 8.584 194.819 8.424V3.228C194.819 3.068 194.871 2.932 194.975 2.82C195.087 2.708 195.223 2.652 195.383 2.652C195.551 2.652 195.687 2.708 195.791 2.82C195.903 2.932 195.959 3.068 195.959 3.228V8.424ZM195.383 1.86C195.151 1.86 194.983 1.82 194.879 1.74C194.783 1.652 194.735 1.516 194.735 1.332V1.14C194.735 0.948 194.787 0.812 194.891 0.732C195.003 0.652 195.171 0.612 195.395 0.612C195.619 0.612 195.779 0.656 195.875 0.744C195.979 0.824 196.031 0.956 196.031 1.14V1.332C196.031 1.524 195.979 1.66 195.875 1.74C195.771 1.82 195.607 1.86 195.383 1.86ZM199.902 3.828V7.404C199.902 7.804 200.082 8.004 200.442 8.004C200.498 8.004 200.574 7.992 200.67 7.968C200.766 7.936 200.842 7.92 200.898 7.92C201.002 7.92 201.09 7.964 201.162 8.052C201.234 8.14 201.27 8.252 201.27 8.388C201.27 8.556 201.174 8.7 200.982 8.82C200.79 8.94 200.574 9 200.334 9C200.07 9 199.826 8.972 199.602 8.916C199.386 8.86 199.19 8.72 199.014 8.496C198.846 8.264 198.762 7.916 198.762 7.452V3.828H198.066C197.914 3.828 197.786 3.78 197.682 3.684C197.586 3.58 197.538 3.452 197.538 3.3C197.538 3.148 197.586 3.024 197.682 2.928C197.786 2.832 197.914 2.784 198.066 2.784H198.762V1.776C198.762 1.616 198.814 1.48 198.918 1.368C199.03 1.256 199.17 1.2 199.338 1.2C199.498 1.2 199.63 1.256 199.734 1.368C199.846 1.48 199.902 1.616 199.902 1.776V2.784H200.898C201.05 2.784 201.174 2.836 201.27 2.94C201.374 3.036 201.426 3.16 201.426 3.312C201.426 3.464 201.374 3.588 201.27 3.684C201.174 3.78 201.05 3.828 200.898 3.828H199.902ZM208.818 5.616C208.81 5.76 208.75 5.884 208.638 5.988C208.526 6.084 208.394 6.132 208.242 6.132H204.018C204.074 6.716 204.294 7.184 204.678 7.536C205.07 7.888 205.546 8.064 206.106 8.064C206.49 8.064 206.802 8.008 207.042 7.896C207.282 7.784 207.494 7.64 207.678 7.464C207.798 7.392 207.914 7.356 208.026 7.356C208.162 7.356 208.274 7.404 208.362 7.5C208.458 7.596 208.506 7.708 208.506 7.836C208.506 8.004 208.426 8.156 208.266 8.292C208.034 8.524 207.726 8.72 207.342 8.88C206.958 9.04 206.566 9.12 206.166 9.12C205.518 9.12 204.946 8.984 204.45 8.712C203.962 8.44 203.582 8.06 203.31 7.572C203.046 7.084 202.914 6.532 202.914 5.916C202.914 5.244 203.05 4.656 203.322 4.152C203.602 3.64 203.966 3.248 204.414 2.976C204.87 2.704 205.358 2.568 205.878 2.568C206.39 2.568 206.87 2.7 207.318 2.964C207.766 3.228 208.126 3.592 208.398 4.056C208.67 4.52 208.81 5.04 208.818 5.616ZM205.878 3.624C205.43 3.624 205.042 3.752 204.714 4.008C204.386 4.256 204.17 4.644 204.066 5.172H207.606V5.076C207.566 4.652 207.374 4.304 207.03 4.032C206.694 3.76 206.31 3.624 205.878 3.624Z" fill="#AEB8D0"/>
</svg>
