<svg width="37" height="38" viewBox="0 0 37 38" fill="none" xmlns="http://www.w3.org/2000/svg">
<path d="M2 19.25C2 9.72309 9.66831 2 19.1277 2C20.8711 2 22.5537 2.26235 24.1387 2.75" stroke="#5F82FF" stroke-width="4" stroke-linecap="round" stroke-linejoin="round"/>
<path fill-rule="evenodd" clip-rule="evenodd" d="M15.4415 22.9623C17.4774 25.0126 20.778 25.0126 22.8136 22.9623C24.8492 20.912 33.2765 6.50002 32.5319 5.75002C31.787 5.00002 17.4774 13.4874 15.4415 15.5377C13.4059 17.5879 13.4059 20.912 15.4415 22.9623ZM19.1273 20.75C19.9501 20.75 20.6168 20.0785 20.6168 19.25C20.6168 18.4216 19.9501 17.75 19.1273 17.75C18.3048 17.75 17.6381 18.4216 17.6381 19.25C17.6381 20.0785 18.3048 20.75 19.1273 20.75Z" fill="#5F82FF"/>
<ellipse cx="4.23399" cy="28.25" rx="1.48936" ry="1.5" fill="#5F82FF"/>
<ellipse cx="10.1915" cy="34.25" rx="1.48936" ry="1.5" fill="#5F82FF"/>
<ellipse cx="19.1275" cy="36.5" rx="1.48936" ry="1.5" fill="#5F82FF"/>
<ellipse cx="28.0638" cy="34.25" rx="1.48936" ry="1.5" fill="#5F82FF"/>
<ellipse cx="33.2767" cy="28.25" rx="1.48936" ry="1.5" fill="#5F82FF"/>
<ellipse cx="35.5106" cy="19.25" rx="1.48936" ry="1.5" fill="#5F82FF"/>
</svg>
